<?xml version="1.0" encoding="UTF-8" standalone="no"?><!DOCTYPE svg PUBLIC "-//W3C//DTD SVG 1.1//EN" "http://www.w3.org/Graphics/SVG/1.1/DTD/svg11.dtd"><svg width="100%" height="100%" viewBox="0 0 200 200" version="1.1" xmlns="http://www.w3.org/2000/svg" xmlns:xlink="http://www.w3.org/1999/xlink" xml:space="preserve" xmlns:serif="http://www.serif.com/" style="fill-rule:evenodd;clip-rule:evenodd;stroke-linecap:round;stroke-linejoin:round;stroke-miterlimit:1.5;"><path d="M47.727,58.929c-8.589,-0.295 -20.127,1.749 -26.905,7.452c-6.778,5.703 -12.947,17.186 -13.761,26.764c-0.813,9.579 1.707,23.376 8.879,30.705c7.172,7.33 23.225,13.109 34.153,13.273c10.929,0.163 24.121,-5.056 31.419,-12.294c7.297,-7.238 10.257,-21.689 8.73,-31.135c-1.527,-9.446 -10.198,-19.749 -17.89,-25.543c-7.033,-5.298 -16.037,-8.927 -24.625,-9.222Z" style="fill:none;stroke:#000;stroke-width:11.36px;"/><path d="M129.545,46.061c-12.095,-0.408 -28.346,2.417 -37.892,10.296c-9.545,7.878 -19.446,24.804 -20.592,38.037c-1.146,13.233 6.389,39.518 17.656,48.33c11.01,8.611 28.164,12.051 43.556,12.276c15.392,0.225 30.183,-4.106 40.461,-14.106c10.278,-10 16.992,-29.964 16.66,-44.076c-0.311,-13.223 -9.939,-29.556 -20.773,-37.561c-9.905,-7.32 -26.98,-12.789 -39.076,-13.196Z" style="fill:none;stroke:#000;stroke-width:11.36px;"/></svg>