<?xml version="1.0" encoding="UTF-8" standalone="no"?><!DOCTYPE svg PUBLIC "-//W3C//DTD SVG 1.1//EN" "http://www.w3.org/Graphics/SVG/1.1/DTD/svg11.dtd"><svg width="100%" height="100%" viewBox="0 0 1320 1320" version="1.1" xmlns="http://www.w3.org/2000/svg" xmlns:xlink="http://www.w3.org/1999/xlink" xml:space="preserve" xmlns:serif="http://www.serif.com/" style="fill-rule:evenodd;clip-rule:evenodd;stroke-linecap:round;stroke-linejoin:round;stroke-miterlimit:1.5;"><path d="M314.996,388.931c-56.683,-1.948 -132.839,11.547 -177.571,49.185c-44.732,37.638 -85.45,113.428 -90.82,176.644c-5.37,63.216 11.263,154.276 58.598,202.651c47.336,48.375 153.284,86.522 225.413,87.598c72.129,1.077 159.197,-33.366 207.361,-81.138c48.163,-47.771 67.697,-143.146 57.621,-205.492c-10.076,-62.345 -67.309,-130.339 -118.076,-168.581c-46.418,-34.965 -105.844,-58.92 -162.526,-60.867Z" style="fill:none;stroke:#000;stroke-width:75px;"/><path d="M855,304c-79.832,-2.69 -187.089,15.953 -250.089,67.953c-63,52 -128.348,163.71 -135.911,251.047c-7.563,87.337 42.172,260.821 116.53,318.976c72.667,56.834 185.884,79.536 287.47,81.024c101.586,1.488 199.212,-27.098 267.045,-93.098c67.834,-66 112.146,-197.767 109.955,-290.902c-2.053,-87.272 -65.599,-195.074 -137.099,-247.907c-65.375,-48.307 -178.069,-84.403 -257.901,-87.093Z" style="fill:none;stroke:#000;stroke-width:75px;"/></svg>